# xmcd CD database file
#
# Track frame offsets:
#	150
#	18009
#	36433
#	49361
#	71098
#	86758
#	103548
#	114528
#	132696
#	158219
#	179747
#	196509
#	209466
#	237348
#	265661
#
# Disc length: 4115 seconds
#
# Revision: 0
# Processed by: cddbd v1.5.1PL0 Copyright (c) Steve Scherf et al.
# Submitted via: CD2WAV32(JP) R3.22
#
DISCID=d910110f
DTITLE=松崎しげる - 時代遅れのラブソング　(Old Fashion Love Song）
DYEAR=2000
DGENRE=JPop
TTITLE0=素肌物語
TTITLE1=ワンダフル・モーメント
TTITLE2=ただそれだけ
TTITLE3=愛の形見
TTITLE4=あなたしか見えない
TTITLE5=I Gave You My Love
TTITLE6=Talkin' In The Rain
TTITLE7=愛の6日間
TTITLE8=抜け殻
TTITLE9=愛のメモリー
TTITLE10=My Song
TTITLE11=私の歌
TTITLE12=君に贈りたい愛がある
TTITLE13=愛のメモリー21
TTITLE14=黄色い麦わら帽子（ボーナス・トラック）
EXTD=
EXTT0=
EXTT1=
EXTT2=
EXTT3=
EXTT4=
EXTT5=
EXTT6=
EXTT7=
EXTT8=
EXTT9=
EXTT10=
EXTT11=
EXTT12=
EXTT13=
EXTT14=
PLAYORDER=
